# xmcd
#
# Track frame offsets:
#	150
#	22814
#	38665
#	60167
#	79113
#	95999
#	118855
#	144086
#	171479
#	192700
#	213994
#	234747
#	254438
#	267887
#
# Disc length: 3972 seconds
#
# Revision: 1
# Processed by: cddbd v1.5.2PL0 Copyright (c) Steve Scherf et al.
# Submitted via: audiograbber 1.83.01
#
DISCID=c40f820e
DTITLE=Thomas Stelzer - FUFFTSCH
DYEAR=2014
DGENRE=Blues, Soul, Gospel
TTITLE0=John and Mac In Dublin
TTITLE1=Confess Your Lies
TTITLE2=Rowboat
TTITLE3=God Will Take Care
TTITLE4=Ev´rybody Loves Saturdaynight
TTITLE5=Sunny
TTITLE6=My Life Is A Boogie
TTITLE7=Coffin Blues
TTITLE8=Rollin´& A-Tumblin´
TTITLE9=Peu De Vin
TTITLE10=I´ll Fly Away
TTITLE11=Need You For Living
TTITLE12=Seven
TTITLE13=The Night They Drove Ol´Dixie Down
EXTD=
EXTT0=
EXTT1=
EXTT2=
EXTT3=
EXTT4=
EXTT5=
EXTT6=
EXTT7=
EXTT8=
EXTT9=
EXTT10=
EXTT11=
EXTT12=
EXTT13=
PLAYORDER=
